<svg width="48" height="56" viewBox="0 0 48 56" fill="none" xmlns="http://www.w3.org/2000/svg">
<path d="M19.7336 0.533325L21.867 4.79999H43.2003L45.3336 0.533325H19.7336ZM21.867 6.93332V12.2667C21.867 12.2667 21.867 24 32.5336 24C43.2003 24 43.2003 12.2667 43.2003 12.2667V6.93332H21.867ZM4.73203 13.2736C3.60189 13.2916 2.52507 13.7572 1.73793 14.5684C0.950788 15.3795 0.517663 16.4698 0.533629 17.6V34.6667C0.5331 35.3059 0.676215 35.9371 0.952399 36.5136C1.22858 37.0901 1.63078 37.5972 2.12927 37.9974C2.62775 38.3975 3.20979 38.6806 3.83237 38.8256C4.45494 38.9706 5.10215 38.9739 5.72616 38.8352L17.6003 36.1899V56L42.684 26.432C42.0782 26.2451 41.4491 26.1445 40.8152 26.1333H24.0003L9.06696 29.3504V17.6C9.07503 17.0289 8.96836 16.462 8.75325 15.9329C8.53815 15.4038 8.21901 14.9232 7.81474 14.5197C7.41047 14.1163 6.9293 13.7981 6.39977 13.584C5.87024 13.37 5.30312 13.2644 4.73203 13.2736ZM46.3918 29.1669L23.6248 56H47.467V32.7851C47.467 31.4453 47.0659 30.208 46.3918 29.1669Z" fill="#2887C6"/>
</svg>
