<svg width="55" height="47" viewBox="0 0 55 47" fill="none" xmlns="http://www.w3.org/2000/svg">
<path d="M54.7188 44.4375C54.7188 44.9928 54.4982 45.5254 54.1055 45.918C53.7129 46.3107 53.1803 46.5312 52.625 46.5312H2.375C1.8197 46.5312 1.28715 46.3107 0.894495 45.918C0.501841 45.5254 0.28125 44.9928 0.28125 44.4375C0.28125 43.8822 0.501841 43.3496 0.894495 42.957C1.28715 42.5643 1.8197 42.3438 2.375 42.3438H52.625C53.1803 42.3438 53.7129 42.5643 54.1055 42.957C54.4982 43.3496 54.7188 43.8822 54.7188 44.4375ZM54.7188 4.65625V33.9688C54.7188 35.0793 54.2776 36.1445 53.4923 36.9298C52.707 37.7151 51.6418 38.1562 50.5312 38.1562H4.46875C3.35816 38.1562 2.29305 37.7151 1.50774 36.9298C0.722432 36.1445 0.28125 35.0793 0.28125 33.9688V4.65625C0.28125 3.54566 0.722432 2.48055 1.50774 1.69524C2.29305 0.909932 3.35816 0.46875 4.46875 0.46875H50.5312C51.6418 0.46875 52.707 0.909932 53.4923 1.69524C54.2776 2.48055 54.7188 3.54566 54.7188 4.65625ZM36.9219 19.3125C36.9218 18.9601 36.8327 18.6135 36.663 18.3047C36.4933 17.9958 36.2483 17.7349 35.9509 17.5459L24.4353 10.2178C24.1187 10.0167 23.754 9.90429 23.3792 9.89234C23.0044 9.88039 22.6333 9.96932 22.3046 10.1498C21.9759 10.3304 21.7017 10.5959 21.5107 10.9186C21.3197 11.2413 21.2189 11.6094 21.2188 11.9844V26.6406C21.2189 27.0156 21.3197 27.3837 21.5107 27.7064C21.7017 28.0291 21.9759 28.2946 22.3046 28.4752C22.6333 28.6557 23.0044 28.7446 23.3792 28.7327C23.754 28.7207 24.1187 28.6083 24.4353 28.4072L35.9509 21.0791C36.2483 20.8901 36.4933 20.6292 36.663 20.3203C36.8327 20.0115 36.9218 19.6649 36.9219 19.3125Z" fill="#2887C6"/>
</svg>
